HIERARCHY
ROOT pelvis
{
  OFFSET 0 100 0
  CHANNELS 6 Xposition Yposition Zposition Zrotation Xrotation Yrotation
  JOINT pelvis_right_femur
  {
    OFFSET -10.78128 -3.44521 -0.5502486
    CHANNELS 3 Zrotation Xrotation Yrotation
    JOINT right_femur_tibia
    {
      OFFSET -0.8047443 -44.0398 -0.1307829
      CHANNELS 3 Zrotation Xrotation Yrotation
      JOINT right_tibia_foot
      {
        OFFSET 3.006224 -47.83518 -5
        CHANNELS 3 Zrotation Xrotation Yrotation
        End Site
        {
          OFFSET 0 -5 15
        }
      }
    }
  }
  JOINT pelvis_left_femur
  {
    OFFSET 10.78128 -3.44521 -0.5502486
    CHANNELS 3 Zrotation Xrotation Yrotation
    JOINT left_femur_tibia
    {
      OFFSET 0.8047443 -44.0398 -0.1307829
      CHANNELS 3 Zrotation Xrotation Yrotation
      JOINT left_tibia_foot
      {
        OFFSET -4.370144 -48.10324 -4.275266
        CHANNELS 3 Zrotation Xrotation Yrotation
        End Site
        {
          OFFSET 0 -5 15
        }
      }
    }
  }
  JOINT pelvis_spine1
  {
    OFFSET 0 6.468898 -3.129235
    CHANNELS 3 Zrotation Xrotation Yrotation
    JOINT spine1
    {
      OFFSET 0 23.15396 4.99043
      CHANNELS 3 Zrotation Xrotation Yrotation
      JOINT spine2
      {
        OFFSET 0 20.79997 -5.064912
        CHANNELS 3 Zrotation Xrotation Yrotation
        JOINT neck
        {
          OFFSET 0 14.38658 9.616178
          CHANNELS 3 Zrotation Xrotation Yrotation
          End Site
          {
            OFFSET 0 20 0
          }
        }
      }
      JOINT right_manubrium
      {
        OFFSET -5.722621 16.35077 3.967754
        CHANNELS 3 Zrotation Xrotation Yrotation
        JOINT right_clavicle
        {
          OFFSET -13.16364 1.694482 -4.693211
          CHANNELS 3 Zrotation Xrotation Yrotation
          JOINT right_humerus
          {
            OFFSET -28.5034 -0.3100689 -2.792744
            CHANNELS 3 Zrotation Xrotation Yrotation
            JOINT right_radius
            {
              OFFSET -25.15693 0.02248979 -1.271978
              CHANNELS 3 Zrotation Xrotation Yrotation
              End Site
              {
                OFFSET -15 0 0
              }
            }
          }
        }
      }
      JOINT left_manubrium
      {
        OFFSET 5.722621 16.35077 3.967754
        CHANNELS 3 Zrotation Xrotation Yrotation
        JOINT left_clavicle
        {
          OFFSET 13.16364 1.694482 -4.693211
          CHANNELS 3 Zrotation Xrotation Yrotation
          JOINT left_humerus
          {
            OFFSET 29.39168 -1.063119 -2.237045
            CHANNELS 3 Zrotation Xrotation Yrotation
            JOINT left_radius
            {
              OFFSET 24.59957 -0.9528479 0.9047498
              CHANNELS 3 Zrotation Xrotation Yrotation
              End Site
              {
                OFFSET 15 -0 -0
              }
            }
          }
        }
      }
    }
  }
}
MOTION
Frames: 11
Frame Time: 0.0416666666667
0 103.5113 0 1.943409 -1.139263 -0.2546756 2.093473 -9.949848 9.30712 -1.367069e-09 35.03897 -1.085509e-09 -5.280932 -19.35961 -2.930035 -7.899248 9.681547 -24.20977 2.430127e-10 5.490239 6.408917e-09 8.879837 -15.81173 28.48015 -4.53324 -5.371064 5.433476 2.312638 9.172717 -7.492068 1.240791 22.6743 6.638868 3.289594 -23.66118 8.73192 6.456716 -20.20583 11.51747 85.03673 35.68915 -19.26031 -2.04023e-10 -5.942368e-10 16.41045 -6.855191 7.640011 3.997906 5.656574 -19.66642 -1.151367 -95.04146 29.62863 23.5721 7.746401e-10 4.005949e-12 -16.83555 4.168597 18.59402 8.76005
0.2798866 103.75 1.396785 1.568755 -1.107286 -0.3431768 2.518712 -12.79609 9.138984 -9.443522e-10 37.87923 -8.249006e-10 -5.29296 -18.17321 -3.258623 -7.62218 10.58505 -23.83837 7.596147e-11 5.440921 4.733359e-09 8.334271 -16.61219 27.33515 -4.29107 -4.782922 5.022099 2.345633 9.173425 -7.670715 1.202408 22.6029 6.767753 3.164837 -23.78592 8.957461 6.503821 -19.99029 11.56422 85.63953 35.60493 -19.52369 -1.532691e-10 -4.253264e-10 16.46911 -6.848779 8.003385 4.07407 5.50204 -19.69498 -1.333684 -94.97959 29.72132 23.49589 5.910943e-10 -1.72034e-11 -16.77285 3.925389 18.25592 9.186835
0.5686926 103.9926 2.873448 1.134642 -0.841297 -0.2636946 3.096919 -15.92143 8.82753 -6.252573e-10 38.78184 -5.868903e-10 -5.383915 -16.77379 -3.367929 -7.263637 11.31019 -23.3168 2.476457e-12 5.40209 3.28657e-09 7.627144 -17.52898 26.0761 -3.963115 -4.156134 4.611441 2.426113 9.132612 -7.834551 1.158327 22.46296 6.936145 3.111437 -24.01938 9.164646 6.477453 -19.75039 11.60976 86.10589 35.49737 -19.78207 -1.035766e-10 -2.760675e-10 16.38589 -6.961102 8.30684 4.229252 5.505971 -19.80903 -1.467418 -94.84476 29.65872 23.30253 4.22535e-10 -3.095785e-11 -16.92031 3.819904 17.90665 9.418074
0.8573621 104.1608 4.521696 0.6820279 -0.3167836 -0.05722352 3.775571 -19.21546 8.39203 -3.519883e-10 37.68472 -3.41959e-10 -5.468478 -15.05333 -3.211436 -6.890115 11.92243 -22.68958 -3.202236e-11 5.474306 1.979474e-09 6.766703 -18.57866 24.78337 -3.581083 -3.555483 4.241036 2.542776 9.045022 -7.972019 1.119584 22.26496 7.16053 3.159478 -24.38276 9.365299 6.383932 -19.47133 11.64579 86.48562 35.36131 -20.10635 -5.685295e-11 -1.269183e-10 16.12361 -7.251101 8.520476 4.457648 5.701773 -20.00938 -1.528218 -94.69078 29.43843 22.97595 2.601794e-10 -4.116797e-11 -17.34196 3.846138 17.55141 9.45437
1.131723 104.1633 6.364586 0.2748391 0.3746881 0.2163847 4.490052 -22.45362 7.917059 -2.046353e-10 34.57805 -1.176548e-10 -5.516046 -13.15137 -2.803322 -6.563127 12.36054 -22.03628 2.973887e-11 5.673049 1.090055e-09 5.903854 -19.70995 23.66973 -3.20156 -3.008905 3.956208 2.686734 8.94523 -8.06641 1.088201 22.01087 7.428788 3.319056 -24.82124 9.534512 6.245015 -19.17136 11.6799 86.63182 35.21375 -20.45875 -2.030395e-11 -1.131837e-11 15.6753 -7.686542 8.599307 4.712604 6.089968 -20.28519 -1.529024 -94.428 29.08647 22.47239 1.347759e-10 -4.260281e-11 -18.05169 3.996163 17.20755 9.277705
1.381915 103.9578 8.445605 -0.1127097 1.193191 0.5141323 5.205099 -25.48469 7.442243 -1.265252e-10 30.2151 8.071327e-11 -5.575415 -11.14741 -2.26167 -6.252613 12.70035 -21.35484 1.304406e-10 6.036021 4.927585e-10 4.990678 -20.78862 22.62179 -2.82588 -2.540999 3.724117 2.855577 8.823675 -8.140763 1.062773 21.70573 7.708926 3.542688 -25.29842 9.670501 6.090181 -18.84419 11.69809 86.61141 35.1017 -20.81916 6.096884e-12 7.828182e-11 15.09747 -8.191443 8.619669 4.989241 6.576683 -20.58118 -1.46124 -94.09593 28.64353 21.8956 3.675207e-11 -3.732596e-11 -18.85998 4.198414 16.85582 8.996917
1.60114 103.5366 10.87526 -0.4856904 2.074666 0.8086779 5.833623 -28.01246 6.914481 -3.901366e-11 25.18591 2.459198e-10 -5.667096 -9.289466 -1.723983 -5.923953 13.03655 -20.59348 1.838004e-10 6.630872 2.932137e-11 3.929752 -21.64181 21.47775 -2.456266 -2.216963 3.527357 3.028061 8.640569 -8.212471 1.053203 21.40201 7.941559 3.757271 -25.72689 9.761951 5.893616 -18.47357 11.66394 86.62841 34.98119 -21.21148 2.447591e-11 1.566943e-10 14.43977 -8.743361 8.671361 5.286021 7.081329 -20.871 -1.312849 -93.72858 28.13586 21.23514 -4.455341e-11 -2.833357e-11 -19.68289 4.423592 16.50515 8.665885
1.791681 102.9712 13.74393 -0.8778421 2.86855 1.106537 6.351706 -29.89157 6.411915 9.060597e-11 21.0048 3.806432e-10 -5.839339 -7.743494 -1.366936 -5.549202 13.4287 -19.78045 1.552947e-10 7.691845 -4.669804e-10 2.689898 -22.05898 20.1234 -2.084468 -2.00788 3.310747 3.184286 8.41515 -8.300901 1.05302 21.14988 8.087476 3.887999 -26.04203 9.813386 5.716142 -18.05247 11.58762 86.80146 34.90483 -21.59494 3.934112e-11 2.283742e-10 13.78699 -9.209187 8.834923 5.565174 7.436629 -21.08068 -1.122771 -93.39006 27.67926 20.62349 -1.218791e-10 -1.919547e-11 -20.25216 4.582542 16.15231 8.440141
1.961367 102.3948 17.11502 -1.309908 3.493057 1.422523 6.757282 -30.92403 5.963004 1.767621e-10 18.44569 4.347798e-10 -6.160737 -6.645005 -1.234084 -5.108324 13.84776 -18.9423 9.185539e-11 9.440177 -8.209679e-10 1.312836 -21.79946 18.50265 -1.688597 -1.925217 3.056197 3.313262 8.179269 -8.406027 1.045849 20.94795 8.114948 3.895696 -26.20924 9.795733 5.595333 -17.5969 11.48143 87.05662 34.89339 -21.90162 4.730497e-11 2.588172e-10 13.16772 -9.460403 9.119105 5.780883 7.525098 -21.17299 -0.9313971 -93.00765 27.31685 20.15814 -1.794382e-10 -4.251979e-12 -20.41501 4.67985 15.8215 8.343848
2.131091 102.0106 21.04442 -1.794421 3.875468 1.779264 7.066808 -30.90951 5.611015 2.379198e-10 18.31111 4.133782e-10 -6.670561 -5.835402 -1.325053 -4.617259 14.14404 -18.07172 -1.084416e-11 12.32666 -1.151876e-09 -0.1494568 -20.66967 16.63421 -1.256539 -1.950643 2.766665 3.398187 7.99424 -8.515255 1.016934 20.79294 8.028906 3.784756 -26.2376 9.695345 5.585416 -17.11813 11.37763 87.33883 34.99423 -22.06735 4.891747e-11 2.550566e-10 12.59129 -9.489663 9.535559 5.93595 7.252504 -21.11167 -0.7731869 -92.60088 27.05342 19.98969 -2.307826e-10 1.234897e-11 -19.97633 4.694239 15.49263 8.433054
2.320871 101.9668 25.58197 -2.294783 4.006807 2.153779 7.371796 -29.72236 5.357804 2.331102e-10 19.45193 3.125205e-10 -7.288879 -5.437007 -1.542918 -4.080247 13.93803 -17.10536 -1.067788e-10 16.78304 -1.317919e-09 -1.684597 -18.7243 14.69173 -0.7604467 -2.047739 2.559106 3.433446 7.883661 -8.576257 0.988592 20.70601 7.833538 3.587853 -26.14851 9.517392 5.621278 -16.68975 11.30594 87.6616 35.06927 -22.08577 4.034768e-11 2.133573e-10 12.14119 -9.408306 10.05557 6.043457 6.720512 -20.94035 -0.6361503 -92.3781 26.80895 20.20438 -2.596259e-10 3.574961e-11 -19.0845 4.620088 15.17122 8.676174
